<svg xmlns="http://www.w3.org/2000/svg" xmlns:cc="http://web.resource.org/cc/" xmlns:svg="http://www.w3.org/2000/svg" xmlns:xlink="http://www.w3.org/1999/xlink" id="svg4639" width="16" height="16" version="1.0"><defs id="defs4641"><linearGradient id="linearGradient2889"><stop style="stop-color:#888a85;stop-opacity:1" id="stop2891" offset="0"/><stop style="stop-color:#555753;stop-opacity:1" id="stop2893" offset="1"/></linearGradient><linearGradient id="linearGradient2881"><stop style="stop-color:white;stop-opacity:1" id="stop2883" offset="0"/><stop style="stop-color:#eeeeec;stop-opacity:1" id="stop2885" offset="1"/></linearGradient><linearGradient id="linearGradient2853"><stop style="stop-color:white;stop-opacity:1" id="stop2855" offset="0"/><stop style="stop-color:white;stop-opacity:0" id="stop2857" offset="1"/></linearGradient><linearGradient id="linearGradient5631"><stop style="stop-color:white;stop-opacity:1" id="stop5633" offset="0"/><stop style="stop-color:#729fcf;stop-opacity:1" id="stop5635" offset="1"/></linearGradient><linearGradient id="linearGradient8163"><stop style="stop-color:#bad0e8;stop-opacity:1" id="stop8165" offset="0"/><stop style="stop-color:#7fa9d5;stop-opacity:1" id="stop8167" offset="1"/></linearGradient><radialGradient id="radialGradient4666" cx="5.913" cy="9.093" r="6.605" fx="5.913" fy="9.093" gradientTransform="matrix(0.941673,0,0,0.792865,0.946634,3.041907)" gradientUnits="userSpaceOnUse" xlink:href="#linearGradient8163"/><linearGradient id="linearGradient5637" x1="7.5" x2="7.5" y1="8.883" y2="-.798" gradientUnits="userSpaceOnUse" xlink:href="#linearGradient5631"/><radialGradient id="radialGradient2861" cx="4.915" cy="5.133" r="5" fx="4.915" fy="5.133" gradientTransform="matrix(1.925041,0,1.17341e-7,1.382998,-4.336128,-1.661216)" gradientUnits="userSpaceOnUse" xlink:href="#linearGradient2853"/><linearGradient id="linearGradient2887" x1="2.848" x2="7.023" y1="1.379" y2="10.952" gradientUnits="userSpaceOnUse" xlink:href="#linearGradient2881"/><linearGradient id="linearGradient2895" x1="7.44" x2="10.729" y1=".799" y2="13.712" gradientUnits="userSpaceOnUse" xlink:href="#linearGradient2889"/></defs><metadata id="metadata4644"/><g id="layer1" style="display:inline"><rect id="rect4613" width="16" height="16" x="0" y="-.108" style="fill:#fff;fill-opacity:0;stroke:none;stroke-width:1;stroke-linecap:round;stroke-linejoin:miter;stroke-miterlimit:4;stroke-dasharray:none;stroke-dashoffset:0;stroke-opacity:1"/><rect id="rect4615" width="1.988" height="3" x="-.974" y="14.202" transform="matrix(0.707107,-0.707107,0.707107,0.707107,0,0)" style="fill:#525655;fill-opacity:1;stroke:none;stroke-width:1;stroke-linecap:round;stroke-linejoin:miter;stroke-miterlimit:4;stroke-dasharray:none;stroke-dashoffset:0;stroke-opacity:1"/><rect id="rect4617" width="2.866" height="4.438" x="-1.463" y="16.878" rx="1.35" ry="1.454" transform="matrix(0.708405,-0.705806,0.708405,0.705806,0,0)" style="fill:#d3d7cf;fill-opacity:1;stroke:#2e3436;stroke-width:1.00001717;stroke-linecap:round;stroke-linejoin:miter;stroke-miterlimit:4;stroke-dasharray:none;stroke-dashoffset:0;stroke-opacity:1"/><path id="path4619" d="M 11.128133,11.108613 L 14.215547,14.196027" style="fill:none;fill-rule:evenodd;stroke:#525655;stroke-width:1.0000006px;stroke-linecap:round;stroke-linejoin:miter;stroke-opacity:1"/><path id="path4621" d="M 12.487086 5.6153316 A 5.9727769 5.415318 0 1 1 0.54153204,5.6153316 A 5.9727769 5.415318 0 1 1 12.487086 5.6153316 z" transform="matrix(1.088272,0,0,1.200299,-8.933437e-2,0.259922)" style="fill:#fff;fill-opacity:0;stroke:url(#linearGradient2895);stroke-width:.96245235;stroke-linecap:round;stroke-linejoin:miter;stroke-miterlimit:4;stroke-dasharray:none;stroke-dashoffset:0;stroke-opacity:1"/><path id="path4623" d="M 12.487086 5.6153316 A 5.9727769 5.415318 0 1 1 0.54153204,5.6153316 A 5.9727769 5.415318 0 1 1 12.487086 5.6153316 z" transform="matrix(0.920843,0,0,1.015635,1.001354,1.29686)" style="opacity:1;fill:url(#radialGradient4666);fill-opacity:1;stroke:url(#linearGradient2887);stroke-width:1.03404319;stroke-linecap:round;stroke-linejoin:miter;stroke-miterlimit:4;stroke-dasharray:none;stroke-dashoffset:0;stroke-opacity:1"/><rect style="opacity:1;fill:#999;fill-opacity:1;stroke:none;stroke-width:1.20000005;stroke-linecap:round;stroke-linejoin:round;stroke-miterlimit:4;stroke-dasharray:none;stroke-dashoffset:0;stroke-opacity:1" id="rect1928" width="1" height="1" x="12" y="12"/><path style="opacity:.5;fill:url(#radialGradient2861);fill-opacity:1;stroke:none;stroke-width:1.03404319;stroke-linecap:round;stroke-linejoin:miter;stroke-miterlimit:4;stroke-dasharray:none;stroke-dashoffset:0;stroke-opacity:1;display:inline" id="path2847" d="M 7,2 C 4.2399952,2 2.0000001,4.2399964 2,7 C 3,10.521525 8,3.5447287 12,7 C 12,4.2399964 9.7600047,2 7,2 z"/></g><g id="layer8" style="display:inline"><g id="g4561" transform="matrix(0,1,-1,0,14,0)"><g style="opacity:.8" id="g5768"><path style="fill:#fff;fill-opacity:1;fill-rule:evenodd;stroke:#729fcf;stroke-width:1.5;stroke-linecap:butt;stroke-linejoin:round;stroke-miterlimit:4;stroke-dasharray:none;stroke-opacity:1;display:inline" id="path5760" d="M 5,4 L 2,7 L 5,10 L 5,4 z M 9,4 L 9,10 L 12,7 L 9,4 z"/><rect style="opacity:1;fill:#729fcf;fill-opacity:1;stroke:none;stroke-width:1;stroke-linecap:round;stroke-linejoin:miter;stroke-miterlimit:4;stroke-dasharray:none;stroke-dashoffset:0;stroke-opacity:1;display:inline" id="rect5752" width="4" height="4" x="5" y="5" rx="0" ry="0"/></g><rect id="rect5754" width="6" height="2" x="4" y="6" rx="0" ry="0" style="fill:#fff;fill-opacity:1;stroke:none;stroke-width:1;stroke-linecap:round;stroke-linejoin:miter;stroke-miterlimit:4;stroke-dasharray:none;stroke-dashoffset:0;stroke-opacity:1;display:inline"/><path id="path5756" d="M 5,4 L 2,7 L 5,10 L 5,4" style="fill:#fff;fill-opacity:1;fill-rule:evenodd;stroke:none;stroke-width:1px;stroke-linecap:butt;stroke-linejoin:miter;stroke-opacity:1"/><path id="path5758" d="M 9,4 L 12,7 L 9,10 L 9,4" style="fill:#fff;fill-opacity:1;fill-rule:evenodd;stroke:none;stroke-width:1px;stroke-linecap:butt;stroke-linejoin:miter;stroke-opacity:1;display:inline"/></g></g></svg>