<svg xmlns="http://www.w3.org/2000/svg" xmlns:cc="http://web.resource.org/cc/" xmlns:svg="http://www.w3.org/2000/svg" xmlns:xlink="http://www.w3.org/1999/xlink" id="svg7360" width="22" height="22" version="1.0"><defs id="defs7362"><linearGradient id="linearGradient5398"><stop style="stop-color:#729fcf;stop-opacity:1" id="stop5400" offset="0"/><stop style="stop-color:#729fcf;stop-opacity:0" id="stop5402" offset="1"/></linearGradient><linearGradient id="linearGradient7413" x1="-1.651" x2="6.105" y1="229.185" y2="250.191" gradientUnits="userSpaceOnUse" xlink:href="#linearGradient5398"/><linearGradient id="linearGradient7659"><stop style="stop-color:#555753;stop-opacity:1" id="stop7661" offset="0"/><stop style="stop-color:#555753;stop-opacity:0" id="stop7663" offset="1"/></linearGradient><radialGradient id="radialGradient7411" cx="15.125" cy="229.396" r="9.375" fx="15.125" fy="229.396" gradientTransform="matrix(0.973425,0,0,0.24,0.401944,173.945)" gradientUnits="userSpaceOnUse" xlink:href="#linearGradient7659"/><linearGradient id="linearGradient5388"><stop style="stop-color:#bcd2e9;stop-opacity:1" id="stop5390" offset="0"/><stop style="stop-color:#93b6db;stop-opacity:1" id="stop5392" offset="1"/></linearGradient><radialGradient id="radialGradient7409" cx="2.969" cy="240.416" r="8.969" fx="2.969" fy="240.416" gradientUnits="userSpaceOnUse" xlink:href="#linearGradient5388"/><linearGradient id="linearGradient7629"><stop style="stop-color:#555753;stop-opacity:1" id="stop7631" offset="0"/><stop style="stop-color:#babdb6;stop-opacity:1" id="stop7633" offset="1"/></linearGradient><linearGradient id="linearGradient7407" x1="-164.737" x2="-162.925" y1="182.099" y2="182.105" gradientTransform="translate(235.4321,-644.2117)" gradientUnits="userSpaceOnUse" xlink:href="#linearGradient7629"/></defs><metadata id="metadata7365"/><g id="layer1"><g id="g7387" transform="translate(-1,-1)"><g id="draw_zoom" transform="translate(295.0516,397.0022)"><rect id="rect18273" width="2.5" height="9.063" x="70.878" y="-467.016" rx="1.493" ry="1.493" transform="matrix(0.707107,-0.707107,0.707107,0.707107,0,0)" style="fill:url(#linearGradient7407);fill-opacity:1;fill-rule:nonzero;stroke:#555753;stroke-width:1.00000107;stroke-linecap:round;stroke-linejoin:miter;stroke-miterlimit:4;stroke-dasharray:none;stroke-dashoffset:0;stroke-opacity:1"/><path id="path18275" d="M 11.4375 235.40625 A 8.46875 8.46875 0 1 1 -5.5,235.40625 A 8.46875 8.46875 0 1 1 11.4375 235.40625 z" transform="matrix(1.003826,0,0,1,-288.0306,-622.4396)" style="fill:url(#radialGradient7409);fill-opacity:1;fill-rule:nonzero;stroke:#888a85;stroke-width:.99809253;stroke-linecap:round;stroke-linejoin:miter;stroke-miterlimit:4;stroke-dasharray:none;stroke-dashoffset:0;stroke-opacity:1"/><path id="path18277" d="M -292.15418,-386.77986 C -292.15418,-386.77986 -288.74097,-385.87708 -284.98838,-385.87708 C -281.2922,-385.87708 -277.82258,-387.68264 -277.82258,-387.68264 C -277.82258,-387.68264 -278.8839,-394.00208 -284.98838,-394.00208 C -291.88279,-393.88923 -292.15418,-386.77986 -292.15418,-386.77986 z" style="opacity:.2857143;fill:#fff;fill-opacity:1;fill-rule:evenodd;stroke:none;stroke-width:1px;stroke-linecap:butt;stroke-linejoin:miter;stroke-opacity:1"/><path id="path18279" d="M 11.4375 235.40625 A 8.46875 8.46875 0 1 1 -5.5,235.40625 A 8.46875 8.46875 0 1 1 11.4375 235.40625 z" transform="matrix(0.885609,0,0,0.885612,-287.6784,-595.4806)" style="opacity:.8;fill:none;fill-opacity:1;fill-rule:nonzero;stroke:#fff;stroke-width:1.12916505;stroke-linecap:round;stroke-linejoin:miter;stroke-miterlimit:4;stroke-dasharray:none;stroke-dashoffset:0;stroke-opacity:1"/><path id="path18281" d="M 24.875 228.875 A 9.375 2.25 0 1 1 6.125,228.875 A 9.375 2.25 0 1 1 24.875 228.875 z" transform="matrix(1.119412,0,0,1.555533,-300.897,-733.5249)" style="opacity:.2;fill:url(#radialGradient7411);fill-opacity:1;fill-rule:nonzero;stroke:none;stroke-width:1;stroke-linecap:round;stroke-linejoin:miter;stroke-miterlimit:4;stroke-dasharray:none;stroke-dashoffset:0;stroke-opacity:1"/><path style="opacity:.6;fill:none;fill-opacity:1;fill-rule:nonzero;stroke:url(#linearGradient7413);stroke-width:1.2950778;stroke-linecap:round;stroke-linejoin:miter;stroke-miterlimit:4;stroke-dasharray:none;stroke-dashoffset:0;stroke-opacity:1" id="path5396" d="M 11.4375 235.40625 A 8.46875 8.46875 0 1 1 -5.5,235.40625 A 8.46875 8.46875 0 1 1 11.4375 235.40625 z" transform="matrix(0.770704,0,0,0.773608,-287.3127,-569.1141)"/><g id="g5768" transform="matrix(1.0434783,0,0,1,-292.35595,-393.7522)" style="opacity:.8;display:inline"><path id="path5760" d="M 5.3328369,4 L 2,7 L 5.3328369,10 L 5.3328369,4 z M 8.697421,4 L 8.697421,10 L 12,7 L 8.697421,4 z" style="fill:#fff;fill-opacity:1;fill-rule:evenodd;stroke:#729fcf;stroke-width:1.46841753;stroke-linecap:butt;stroke-linejoin:round;stroke-miterlimit:4;stroke-dasharray:none;stroke-opacity:1;display:inline"/><rect id="rect5752" width="4" height="4" x="5" y="4.75" rx="0" ry="0" style="opacity:1;fill:#729fcf;fill-opacity:1;stroke:none;stroke-width:1;stroke-linecap:round;stroke-linejoin:miter;stroke-miterlimit:4;stroke-dasharray:none;stroke-dashoffset:0;stroke-opacity:1;display:inline"/></g><rect style="fill:#fff;fill-opacity:1;stroke:none;stroke-width:1;stroke-linecap:round;stroke-linejoin:miter;stroke-miterlimit:4;stroke-dasharray:none;stroke-dashoffset:0;stroke-opacity:1;display:inline" id="rect5754" width="6" height="2" x="-288.302" y="-388.002" rx="0" ry="0"/><path style="fill:#fff;fill-opacity:1;fill-rule:evenodd;stroke:none;stroke-width:1px;stroke-linecap:butt;stroke-linejoin:miter;stroke-opacity:1;display:inline" id="path5756" d="M -287.0516,-389.7522 L -290.0516,-386.7522 L -287.0516,-383.7522 L -287.0516,-389.7522"/><path style="fill:#fff;fill-opacity:1;fill-rule:evenodd;stroke:none;stroke-width:1px;stroke-linecap:butt;stroke-linejoin:miter;stroke-opacity:1;display:inline" id="path5758" d="M -283.0516,-389.7522 L -280.0516,-386.7522 L -283.0516,-383.7522 L -283.0516,-389.7522"/></g></g></g></svg>