<svg xmlns="http://www.w3.org/2000/svg" xmlns:svg="http://www.w3.org/2000/svg" id="svg878" width="16" height="16" version="1.1"><metadata id="metadata884"/><g id="g1564"><path style="font-weight:400;font-family:sans-serif;font-variant-ligatures:normal;font-variant-position:normal;font-variant-caps:normal;font-variant-numeric:normal;font-variant-alternates:normal;font-feature-settings:normal;text-indent:0;text-decoration:none;text-decoration-line:none;text-decoration-style:solid;text-decoration-color:#000;text-transform:none;text-orientation:mixed;white-space:normal;shape-padding:0;overflow:visible;isolation:auto;mix-blend-mode:normal" id="path872" d="m 4,2 v 2 h 6 c 0.428,0 1,0.614 1,1 V 6 H 6 C 5.08,6 4.264,6.38 3.75,6.965 A 3.037,3.037 0 0 0 3.013,9.01 C 3.019,9.73 3.259,10.459 3.771,11.037 4.284,11.616 5.091,12 6,12 h 7 V 5 A 3,3 0 0 0 10,2 Z m 2,6 h 5 v 2 H 6 C 5.602,10 5.421,9.884 5.27,9.713 A 1.138,1.138 0 0 1 5.013,8.99 C 5.011,8.71 5.106,8.45 5.252,8.285 5.397,8.12 5.577,8 6,8 Z" overflow="visible"/><path id="path851" d="m 4.0049985,13 -1.8806418,1.526978 c -0.3770871,0.306304 0.1885435,0.765761 0.5656305,0.459457 l 1.3150113,-1.06882 1.5978269,1.297899 1.5978266,-1.297899 1.5978268,1.297899 1.5978262,-1.297899 1.597827,1.297899 1.880642,-1.526978 C 14.251861,13.382232 13.68623,12.922775 13.309143,13.229079 L 11.994132,14.297899 10.396305,13 8.7984788,14.297899 7.200652,13 5.6028255,14.297899 Z" overflow="visible" style="font-variant-ligatures:normal;font-variant-position:normal;font-variant-caps:normal;font-variant-numeric:normal;font-variant-alternates:normal;font-feature-settings:normal;text-indent:0;text-decoration:none;text-decoration-line:none;text-decoration-style:solid;text-decoration-color:#000;text-transform:none;text-orientation:mixed;shape-padding:0;overflow:visible;isolation:auto;mix-blend-mode:normal;fill-opacity:1;stroke-width:.72003782"/></g></svg>