<svg xmlns="http://www.w3.org/2000/svg" xmlns:svg="http://www.w3.org/2000/svg" id="svg8" width="16" height="16" version="1.1"><metadata id="metadata14"/><g id="g5249"><path id="path2" d="M 6.5078125 1 C 3.4798125 1 1.0019531 3.474 1.0019531 6.5 C 1.0019531 7.5987879 1.3314234 8.623174 1.8925781 9.484375 L 4.6738281 9.484375 A 3.488 3.488 0 0 1 3.0019531 6.5 C 3.0019531 4.556 4.5588125 3 6.5078125 3 A 3.488 3.488 0 0 1 10.013672 6.5 C 10.013672 8.444 8.4558125 10 6.5078125 10 A 3.488 3.488 0 0 1 6.4609375 9.9980469 L 6.4609375 11.998047 C 6.4767243 11.998182 6.4919955 12 6.5078125 12 C 9.5358125 12 12.013672 9.526 12.013672 6.5 C 12.013672 3.474 9.5358125 1 6.5078125 1 z" style="font-weight:400;font-family:sans-serif;font-variant-ligatures:normal;font-variant-position:normal;font-variant-caps:normal;font-variant-numeric:normal;font-variant-alternates:normal;font-feature-settings:normal;text-indent:0;text-decoration:none;text-decoration-line:none;text-decoration-style:solid;text-decoration-color:#000;text-transform:none;text-orientation:mixed;white-space:normal;shape-padding:0;overflow:visible;isolation:auto;mix-blend-mode:normal;fill:#474747;fill-opacity:1"/><path style="font-weight:400;font-family:sans-serif;font-variant-ligatures:normal;font-variant-position:normal;font-variant-caps:normal;font-variant-numeric:normal;font-variant-alternates:normal;font-feature-settings:normal;text-indent:0;text-decoration:none;text-decoration-line:none;text-decoration-style:solid;text-decoration-color:#000;text-transform:none;text-orientation:mixed;white-space:normal;shape-padding:0;overflow:visible;isolation:auto;mix-blend-mode:normal;fill:#474747;fill-opacity:1" id="path4" d="m 10,8.99 a 1,1 0 0 0 -0.696,1.717 l 4.004,4 a 1,1 0 1 0 1.414,-1.414 l -4.003,-4 A 1,1 0 0 0 9.999,8.99 Z" overflow="visible"/><path id="path2-3" d="M 0.99805783,9.976634 H 2.3730578 l 1.125,1.093999 1.094,-1.093999 h 1.406 v 1.468999 l -1.094,1.062 1.094,1.063 v 1.406 h -1.438 l -1.062,-1.063 -1.063,1.063 H 0.99805783 v -1.406 l 1.06199997,-1.063 -1.06199997,-1.061 z" overflow="visible" style="color:#bebebe;display:inline;overflow:visible;fill:#474747"/></g></svg>