<svg xmlns="http://www.w3.org/2000/svg" xmlns:osb="http://www.openswatchbook.org/uri/2009/osb" xmlns:svg="http://www.w3.org/2000/svg" xmlns:xlink="http://www.w3.org/1999/xlink" id="svg7384" width="16" height="16" version="1.1" viewBox="0 0 16 16"><metadata id="metadata90"/><defs id="defs7386"><linearGradient id="linearGradient8074" osb:paint="solid"><stop id="stop8072" offset="0" style="stop-color:#be00be;stop-opacity:1"/></linearGradient><linearGradient id="linearGradient7561" osb:paint="solid"><stop id="stop7558" offset="0" style="stop-color:#a5a5a5;stop-opacity:1"/></linearGradient><linearGradient id="linearGradient7548" osb:paint="solid"><stop id="stop7546" offset="0" style="stop-color:#ebebeb;stop-opacity:1"/></linearGradient><linearGradient id="linearGradient7542" osb:paint="solid"><stop id="stop7538" offset="0" style="stop-color:#c9c9c9;stop-opacity:1"/></linearGradient><linearGradient id="linearGradient19282" gradientTransform="matrix(0,-735328.32,170712.69,0,2464326300,577972450)" osb:paint="solid"><stop id="stop19284" offset="0" style="stop-color:#b4b4b4;stop-opacity:1"/></linearGradient><linearGradient id="linearGradient19282-4" gradientTransform="matrix(0.34682586,0,0,0.30620888,26.64813,342.03851)" osb:paint="solid"><stop id="stop19284-0" offset="0" style="stop-color:#bebebe;stop-opacity:1"/></linearGradient><linearGradient id="linearGradient7142" x1="-55" x2="-49" y1="210" y2="210" gradientTransform="translate(403.721,85.791047)" gradientUnits="userSpaceOnUse" xlink:href="#linearGradient19282-4"/><linearGradient id="linearGradient7144" x1="-60" x2="-44" y1="210" y2="210" gradientTransform="translate(403.721,85.791047)" gradientUnits="userSpaceOnUse" xlink:href="#linearGradient19282-4"/></defs><g style="display:inline" id="stock" transform="translate(54.09015,81.24019)"><g id="gimp-visible" transform="translate(-235.09035,-500.24019)" style="display:inline"><path style="fill:url(#linearGradient7142);fill-opacity:1;stroke:none" id="path11920" d="m -52,207 c -1.656854,0 -3,1.34315 -3,3 0,1.65685 1.343146,3 3,3 1.656854,0 3,-1.34315 3,-3 0,-1.65685 -1.343146,-3 -3,-3 z m 0,1.53125 c 0.787268,0 1.4375,0.65408 1.4375,1.46875 0,0.81467 -0.650232,1.5 -1.4375,1.5 -0.787268,0 -1.4375,-0.68533 -1.4375,-1.5 0,-0.81467 0.650232,-1.46875 1.4375,-1.46875 z" transform="translate(241.0002,217)"/><path style="fill:url(#linearGradient7144);fill-opacity:1;stroke:none" id="path11928" d="m -52,204 c -4.41828,0 -8,6 -8,6 0,0 3.58172,6 8,6 4.41828,0 8,-6 8,-6 0,0 -3.58172,-6 -8,-6 z m 0,2 c 3.865993,0 6,4 6,4 0,0 -2.134007,4 -6,4 -3.865993,0 -6,-4 -6,-4 0,0 2.134007,-4 6,-4 z" transform="translate(241.0002,217)"/></g></g></svg>